<svg width="1637" height="1964" viewBox="0 0 1637 1964" fill="none" xmlns="http://www.w3.org/2000/svg">
<path d="M526.925 1963.65C409.176 1912.75 298.993 1783.4 298.729 1651.04C298.409 1506.73 389.861 1384.21 503.605 1303.69C489.931 1355.36 482.473 1402.61 516.35 1448.82C547.843 1491.79 603.001 1512.66 655.083 1501.33C776.778 1474.69 782.361 1340.91 710.216 1262.97C638.884 1185.78 569.88 1098.6 597.031 986.661C610.623 930.55 645.076 877.991 688.722 840.421C655.173 928.585 750.507 1015.53 813.32 1058.84C922.278 1133.98 1041.83 1190.76 1142.01 1278.84C1247.39 1371.42 1325.21 1496.58 1309.5 1641.75C1292.47 1799.1 1167.44 1908.54 1027.19 1963.78C1323.55 1898.37 1629.77 1668.36 1636.05 1339.68C1641.24 1069.28 1455.75 861.183 1225.97 742.045L1213.96 735.492C1220.27 750.794 1222.33 763.811 1222.09 775.462C1224.15 766.87 1225.55 758.038 1225.94 748.928C1225.88 759.751 1224.47 770.525 1221.73 780.996L1222.09 775.462C1218.68 789.818 1212.93 803.516 1205.08 816.008L1208.45 812.382C1162.61 888.417 1038.51 904.928 977.197 826.196C878.641 699.551 979.261 563.005 993.338 428.894C1010.96 260.814 905.553 97.644 774.862 0C846.843 116.441 752.012 270.493 676.141 356.617C602.573 440.101 513.102 509.805 431.887 585.659C344.645 667.129 260.774 752.949 189.064 848.57C45.6443 1039.96 -42.1572 1280.67 22.366 1519.44C86.848 1758.04 293.533 1909.93 526.933 1963.64L526.925 1963.65Z" fill="#EE4323"/>
</svg>
